Pépé le Moko is a gangster from Paris that hides in Algier's Casbah. In the Casbah, he is safe and is able to elude the police's attempts to capture him. But he misses his freedom, after two years in the Casbah. He meets a gorgeous Parisian tourist, Gaby, and they fall in love. Native inspector Slimane tries to use her to attract Pépé out of the Casbah in order to catch him.

   General
      Complete name : Pepe le Moko.avi
      Format : AVI
      Format/Info : Audio Video Interleave
      File size : 1.18 GiB
      Duration : 1h 33mn
      Overall bit rate : 1 804 Kbps
      Writing application : VirtualDubMod 1.5.10.2 (build 2542/release)
      Writing library : VirtualDub build 32661/release
   Video #0
      ID : 0
      Format : MPEG-4 Visual
      Format profile : AdvancedSimple@L5
      Format settings, BVOP : Yes
      Format settings, QPel : No
      Format settings, GMC : No warppoints
      Format settings, Matrix : Custom
      Codec ID : XVID
      Codec ID/Hint : XviD
      Duration : 1h 33mn
      Bit rate : 1 603 Kbps
      Width : 704 pixels
      Height : 528 pixels
      Display aspect ratio : 4:3
      Frame rate : 23.976 fps
      Resolution : 24 bits
      Colorimetry : 4:2:0
      Scan type : Progressive
      Bits/(Pixel*Frame) : 0.180
      Stream size : 1.05 GiB (89%)
      Writing library : XviD 1.2.1 (UTC 2008-12-04)
   Audio #1
      ID : 1
      Format : AC-3
      Format/Info : Audio Coding 3
      Codec ID : 2000
      Duration : 1h 33mn
      Bit rate mode : Constant
      Bit rate : 192 Kbps
      Channel(s) : 1 channel
      Channel positions : C
      Sampling rate : 48.0 KHz
      Stream size : 129 MiB (11%)
      Alignment : Split accross interleaves
      Interleave, duration : 42 ms (1.00 video frame)
      Interleave, preload duration : 500 ms
 
http://www.imdb.com/title/tt0029453/

French audio; English, Spanish and Portuguese subtitles

Criterion rip, posted originally at KG by zoneyoutwonk, whom we thank

Julien Duvivier - Pepe le Moko (1937)
